<?xml version="1.0" encoding="UTF-8" standalone="no"?>
<svg
   xmlns:dc="http://purl.org/dc/elements/1.1/"
   xmlns:cc="http://creativecommons.org/ns#"
   xmlns:rdf="http://www.w3.org/1999/02/22-rdf-syntax-ns#"
   xmlns:svg="http://www.w3.org/2000/svg"
   xmlns="http://www.w3.org/2000/svg"
   id="svg8"
   version="1.1"
   viewBox="0 0 500 500"
   height="500"
   width="500">
  <defs
     id="defs2" />
  <metadata
     id="metadata5">
    <rdf:RDF>
      <cc:Work
         rdf:about="">
        <dc:format>image/svg+xml</dc:format>
        <dc:type
           rdf:resource="http://purl.org/dc/dcmitype/StillImage" />
        <dc:title></dc:title>
      </cc:Work>
    </rdf:RDF>
  </metadata>
  <g
     transform="translate(0,-164.70823)"
     id="layer1">
    <rect
       y="164.70822"
       x="0"
       height="500"
       width="500"
       id="rect1551"
       style="fill:#32b4b6;fill-opacity:1;stroke-width:0.88380897" />
    <path
       id="rect1541"
       transform="translate(0,164.70823)"
       d="M 261.21484 87.380859 C 260.12637 87.411049 259.80713 87.63425 259.25391 88.1875 L 258.31445 89.126953 L 258.5918 141.91016 C 258.74385 170.94124 258.86905 213.41061 258.86914 236.28711 C 258.86932 277.32488 258.88128 277.892 259.70312 278.71484 C 260.50383 279.51411 261.09343 279.54883 274.47656 279.54883 C 286.59244 279.54883 288.50076 279.46403 289.07031 278.89453 C 289.65335 278.31172 289.72656 275.11037 289.72656 249.94336 C 289.72656 224.77666 289.6532 221.575 289.07031 220.99219 C 288.52687 220.4487 287.22429 220.33789 281.43555 220.33789 C 273.46827 220.33789 272.73585 220.1177 273.18555 217.86914 C 273.57747 215.9095 306.40926 151.22387 307.74219 149.78516 C 309.30891 148.09408 309.96247 148.57179 312.53516 153.2793 C 316.52113 160.573 345.48508 216.37268 345.78906 217.34375 C 345.99815 218.01103 345.86682 218.56292 345.36523 219.11719 C 344.70417 219.8477 344.02711 219.91992 337.96094 219.91992 C 332.33172 219.91992 331.16034 220.02959 330.51758 220.61133 C 329.79281 221.26723 329.75672 222.71948 329.76172 249.9043 C 329.76672 267.18249 329.92543 278.75291 330.16406 279.13086 C 330.63132 279.87074 342.96296 280.13712 383.85938 280.28906 C 408.49055 280.38045 408.99879 280.36661 409.81641 279.54883 C 410.2751 279.09015 410.65667 278.57431 410.66797 278.40234 C 410.67795 278.23022 410.86761 277.24493 411.08984 276.21289 C 411.65348 273.59383 412.29134 269.84988 412.75781 266.41406 C 413.30062 262.41589 414.53516 248.07782 414.53516 245.77344 C 414.53516 242.00347 412.91675 225.17494 412.12891 220.75391 C 408.02196 197.70729 401.03547 179.41297 389.28125 160.91797 C 374.0701 136.98343 352.50581 117.49844 327.27344 104.89258 C 316.2238 99.372198 309.48135 96.730545 298.48242 93.609375 C 289.96912 91.193535 287.14564 90.552292 280.13477 89.445312 C 272.68049 88.268292 268.81281 87.798019 264.22266 87.505859 C 263.15409 87.437789 262.36376 87.392159 261.75977 87.380859 C 261.55844 87.376859 261.37812 87.376859 261.21484 87.380859 z M 216.62695 91.943359 C 216.5187 91.938359 216.40233 91.939266 216.27734 91.947266 C 214.61098 92.024296 211.35784 93.001458 203.79688 95.392578 C 171.35652 105.65173 141.94767 126.7679 122.07227 154.07812 C 115.72172 162.80431 110.12396 172.17596 105.84375 181.25 C 100.68952 192.177 95.03684 209.31174 93.705078 218.04297 C 93.460214 219.64833 93.080843 221.99452 92.861328 223.25586 C 91.991119 228.25602 91.633162 231.30389 90.974609 239.30859 C 90.161111 249.19674 90.166166 248.77625 90.763672 257.23828 C 91.279006 264.53658 91.84404 269.51098 92.775391 274.95898 C 93.108639 276.90839 93.573016 279.72412 93.808594 281.21484 C 94.401673 284.96795 96.817425 294.15534 98.46875 298.9375 C 105.16252 318.32221 115.66088 337.29354 125.46289 347.72266 C 129.69725 352.22782 129.6048 352.01383 129.60547 357.51172 C 129.60797 374.32045 126.53503 386.92407 117.9668 405.26562 C 115.38195 410.79893 115.05403 412.0228 115.91797 412.88672 C 116.45816 413.42697 117.56242 413.24464 120.43164 412.13867 C 123.98721 410.76814 131.46374 408.92552 137.32031 407.97656 C 148.8321 406.11125 153.14759 404.79492 157.46875 401.82617 C 160.63532 399.65064 163.21855 396.61351 166.2832 391.46875 C 167.72699 389.04497 169.18215 386.95624 169.51562 386.82812 C 169.84908 386.70004 173.43641 388.29317 177.48828 390.36719 C 189.49542 396.51346 206.53551 402.54264 216.75586 404.26172 C 218.24656 404.51249 220.30784 404.88096 221.33984 405.08203 C 223.70119 405.54249 228.53717 406.27317 232.59961 406.78125 C 234.31965 406.99646 241.07517 407.28185 247.61133 407.41602 C 262.62508 407.72447 267.64092 407.27404 285.49219 404.00781 C 290.69514 403.05583 290.14258 408.10961 290.14258 361.48438 L 290.14258 320.95898 L 289.26562 320.16406 C 288.44571 319.42134 287.47486 319.36263 274.4082 319.25 C 261.75229 319.14089 260.35694 319.19464 259.65039 319.83398 C 258.98353 320.43739 258.86914 321.16998 258.86914 324.85547 C 258.86914 330.99981 258.63633 330.83594 267.44531 330.83594 C 271.40947 330.83594 274.69536 331.02002 275.1582 331.26758 C 275.6675 331.54016 275.95525 332.11721 275.93555 332.83203 C 275.89618 334.26353 241.4043 402.55325 240.41797 403.15234 C 239.90027 403.46872 239.47662 403.46415 238.95898 403.14062 C 238.20441 402.66989 202.82046 335.49527 202.35938 333.6582 C 202.18797 332.97523 202.33233 332.39228 202.78516 331.93945 C 203.36542 331.35926 204.52074 331.25391 210.32031 331.25391 C 219.10362 331.25391 218.83789 331.44672 218.83789 325.04492 C 218.83789 318.19135 220.50449 318.80963 201.68359 318.67773 C 189.08828 318.58959 185.85418 318.67864 185.31641 319.125 C 184.7829 319.56773 184.63842 320.58532 184.60742 324.11328 C 184.5858 326.55058 184.44538 330.2863 184.29492 332.41602 C 184.00283 336.55052 183.59365 337.29348 181.83789 336.88086 C 180.54646 336.57737 122.48903 304.2919 121.5332 303.3457 C 120.25343 302.07884 121.04714 301.00822 125.35742 298.17773 C 145.13291 285.19146 182.57895 261.41511 183.46289 261.2832 C 185.36723 260.99932 185.61658 262.13429 185.38867 270.0293 C 185.23478 275.35969 185.31588 277.2222 185.72656 277.80859 C 186.22936 278.52652 187.33506 278.59701 201.80078 278.8457 C 215.82096 279.08676 217.40693 279.04608 218.08594 278.43164 C 218.80683 277.77933 218.83789 273.88723 218.83789 185.5918 C 218.83789 100.42154 218.78813 93.374652 218.15039 92.669922 C 217.7625 92.241362 217.38484 91.975512 216.62695 91.945312 L 216.62695 91.943359 z M 342.48633 319.84961 C 341.22963 319.84961 340.10147 319.84942 339.08984 319.85742 C 333.01986 319.88494 331.13104 320.01707 330.69336 320.28125 L 329.75586 320.84766 L 329.76367 352.63281 C 329.76617 370.11464 329.90772 384.62448 330.07617 384.87695 C 330.32591 385.25086 330.98122 385.62793 331.75195 385.84375 C 331.81671 385.86087 332.47344 385.624 333.21094 385.31445 C 336.36348 383.98984 347.90726 375.98607 355.19141 370.07617 C 360.78583 365.53722 372.31697 354.01044 376.92578 348.34961 C 384.68659 338.81727 393.97266 324.6976 393.97266 322.42773 C 393.97266 320.16667 395.00149 320.24661 362.12695 319.9707 C 355.8044 319.91776 350.72776 319.88218 346.65625 319.86328 C 345.1295 319.85598 343.74306 319.85356 342.48633 319.85156 L 342.48633 319.84961 z "
       style="fill:#ffffff;fill-opacity:1;stroke-width:1.09625411" />
  </g>
</svg>
