<?xml version="1.0" encoding="UTF-8" standalone="no"?>
<svg
   xmlns:dc="http://purl.org/dc/elements/1.1/"
   xmlns:cc="http://creativecommons.org/ns#"
   xmlns:rdf="http://www.w3.org/1999/02/22-rdf-syntax-ns#"
   xmlns:svg="http://www.w3.org/2000/svg"
   xmlns="http://www.w3.org/2000/svg"
   id="svg8"
   version="1.1"
   viewBox="0 0 500.00001 499.99998"
   height="500"
   width="500">
  <defs
     id="defs2" />
  <metadata
     id="metadata5">
    <rdf:RDF>
      <cc:Work
         rdf:about="">
        <dc:format>image/svg+xml</dc:format>
        <dc:type
           rdf:resource="http://purl.org/dc/dcmitype/StillImage" />
        <dc:title></dc:title>
      </cc:Work>
    </rdf:RDF>
  </metadata>
  <g
     transform="translate(0,203)"
     id="layer1">
    <rect
       y="-203"
       x="0"
       height="500"
       width="500"
       id="rect862"
       style="fill:#32b4b6;fill-opacity:1" />
    <path
       d="m 0.15773372,296.40611 c -0.10515581,0.39593 -0.0525779,0.19796 0,0 z M 262.111,-167.61526 c 0.87078,-0.0227 2.11132,0.0438 4.011,0.16441 6.12022,0.38948 11.27815,1.01813 21.21718,2.58746 9.34785,1.47598 13.11196,2.3305 24.46302,5.5516 14.66524,4.1616 23.65492,7.6859 38.3878,15.04641 33.64315,16.80787 62.39686,42.78626 82.67841,74.699085 15.67226,24.660059 24.98664,49.053434 30.46254,79.782395 1.05048,5.894703 3.20848,28.33221 3.20848,33.358907 0,3.072491 -1.64656,22.189646 -2.37034,27.520519 -0.62195,4.581052 -1.4711,9.572561 -2.22266,13.064656 -0.29632,1.376013 -0.55015,2.690495 -0.5633,2.919988 -0.0151,0.229417 -0.5252,0.917178 -1.13677,1.528705 -1.09017,1.090318 -1.76776,1.10933 -34.60929,0.987515 -54.52857,-0.202582 -70.97083,-0.557518 -71.59384,-1.544012 -0.31816,-0.503811 -0.5279,-15.932298 -0.53446,-38.969881 -0.007,-36.246655 0.0413,-38.183588 1.00781,-39.058095 0.85702,-0.7756725 2.41665,-0.9196348 9.9223,-0.9196348 8.08824,0 8.99349,-0.098646 9.87478,-1.0722898 0.66886,-0.7390867 0.84376,-1.4738269 0.56501,-2.3635656 -0.40534,-1.2947151 -39.02518,-75.6955908 -44.33982,-85.4205428 -3.43025,-6.2767 -4.3025,-6.912228 -6.39146,-4.657437 -1.77724,1.918299 -45.55127,88.1658411 -46.07384,90.7787043 -0.5996,2.9981105 0.37667,3.2899656 10.99968,3.2899656 7.71832,0 9.45559,0.1489134 10.18017,0.8737891 0.77717,0.777071 0.87383,5.045783 0.87383,38.601717 0,33.555934 -0.0965,37.822907 -0.87383,38.600016 -0.75938,0.759383 -3.3049,0.873751 -19.4594,0.873751 -17.84417,0 -18.62937,-0.04346 -19.69698,-1.111332 -1.09577,-1.097084 -1.1128,-1.85435 -1.11304,-56.57152 -1.3e-4,-30.50215104 -0.16713,-87.127832 -0.36986,-125.83598 l -0.36817,-70.379303 1.25215,-1.25216 c 0.73764,-0.73765 1.16163,-1.03378 2.61292,-1.07403 z m -59.91552,6.08946 c 1.333,-0.0616 1.90479,0.30879 2.49585,0.96204 0.85035,0.93963 0.91962,10.33607 0.91962,123.896744 0,117.727607 -0.0417,122.91671 -1.00275,123.786417 -0.90533,0.819251 -3.02078,0.874545 -21.71435,0.553096 -19.28762,-0.331464 -20.7623,-0.427313 -21.4327,-1.384441 -0.54759,-0.781833 -0.6548,-3.264832 -0.44963,-10.372007 0.30391,-10.52659 -0.0299,-12.039951 -2.5688,-11.661469 -1.17859,0.175748 -51.10745,31.879222 -77.474638,49.19426 -5.747006,3.77405 -6.803252,5.20116 -5.096886,6.89034 1.274419,1.26161 78.682934,44.30858 80.404834,44.71325 2.34101,0.55015 2.88688,-0.44095 3.27633,-5.95377 0.20062,-2.83967 0.3868,-7.82117 0.4157,-11.071 0.0416,-4.70396 0.23543,-6.06069 0.94675,-6.65106 0.717,-0.59505 5.02751,-0.71304 21.82124,-0.5955 25.09452,0.17575 22.8749,-0.64785 22.8749,8.49026 0,8.5358 0.35342,8.27822 -11.35768,8.27822 -7.73274,0 -9.27419,0.14098 -10.04787,0.9145 -0.60377,0.60374 -0.79695,1.38164 -0.5684,2.29224 0.61477,2.44951 47.79435,92.01408 48.80045,92.64175 0.69018,0.43105 1.25413,0.43627 1.94442,0.0151 1.3151,-0.79884 47.30401,-91.85115 47.35655,-93.75989 0.0264,-0.95308 -0.35596,-1.7218 -1.035,-2.0852 -0.61714,-0.33033 -4.99984,-0.57517 -10.28537,-0.57517 -11.7453,0 -11.43407,0.21619 -11.43407,-7.97624 0,-4.91391 0.15266,-5.88896 1.04177,-6.69347 0.94207,-0.85243 2.80379,-0.92594 19.67833,-0.78051 17.4222,0.15005 18.71572,0.2298 19.80894,1.21992 l 1.16903,1.0588 v 54.03493 c 0,62.16715 0.73752,55.42768 -6.19974,56.697 -23.80169,4.355 -30.49069,4.95673 -50.50901,4.54552 -8.71488,-0.17877 -17.72257,-0.55971 -20.01595,-0.84669 -5.41658,-0.67748 -11.86225,-1.6495 -15.01072,-2.26337 -1.37603,-0.26835 -4.12728,-0.76176 -6.11486,-1.0961 -13.62714,-2.29213 -36.34553,-10.3313 -52.35504,-18.5263 -5.4025,-2.76541 -10.18692,-4.88761 -10.63152,-4.71689 -0.4446,0.17084 -2.38287,2.95457 -4.30792,6.18622 -4.0862,6.85977 -7.53264,10.90877 -11.75472,13.80949 -5.76152,3.95833 -11.51475,5.71479 -26.863826,8.20187 -7.808712,1.26528 -17.776125,3.72084 -22.516888,5.5482 -3.825619,1.47462 -5.299628,1.71961 -6.019885,0.99935 -1.15192,-1.15193 -0.713091,-2.78382 2.733381,-10.16153 11.424258,-24.45555 15.520782,-41.26216 15.518,-63.67393 -9.1e-4,-7.33055 0.12121,-7.0441 -5.524441,-13.05102 C 68.03958,165.6027 54.041846,140.30632 45.116843,114.45994 42.915071,108.08372 39.694305,95.834161 38.90353,90.829953 38.589451,88.842299 37.970152,85.089795 37.525815,82.490651 36.284027,75.226587 35.530448,68.593365 34.843333,58.862328 34.046667,47.579568 34.04032,48.140072 35.124976,34.955755 36.003039,24.282784 36.480903,20.217071 37.641181,13.550135 37.93389,11.868358 38.439604,8.7409877 38.766091,6.6004521 40.54177,-5.0412498 48.07859,-27.885359 54.950898,-42.454683 60.657845,-54.553405 68.121501,-67.04947 76.588891,-78.684406 103.08927,-115.09815 142.30045,-143.25579 185.55425,-156.93466 c 10.08128,-3.18814 14.41941,-4.49026 16.64123,-4.59299 z m 163.75009,303.88138 c 2.69776,-0.0151 6.01541,-0.0113 10.08685,0.0113 5.42859,0.0227 12.19836,0.0718 20.62849,0.14249 43.83262,0.36775 42.45986,0.26155 42.45986,3.27632 0,3.02654 -12.37951,21.85206 -22.72729,34.5619 -6.14509,7.54775 -21.52036,22.91758 -28.9796,28.96951 -9.7122,7.87986 -25.10531,18.55011 -29.30877,20.31633 -0.98327,0.41291 -1.85809,0.73046 -1.94441,0.70752 -1.02762,-0.28762 -1.90157,-0.79086 -2.23455,-1.2895 -0.22458,-0.33637 -0.41241,-19.68355 -0.4157,-42.99273 l -0.01,-42.3803 1.25048,-0.75504 c 0.58356,-0.35225 3.10151,-0.52841 11.1948,-0.56504 z"
       style="fill:#ffffff;fill-opacity:1;stroke-width:0.55597502"
       id="path796" />
  </g>
</svg>
